<svg xmlns="http://www.w3.org/2000/svg" viewBox="0 0 720 420" role="img" aria-labelledby="title desc">
  <title id="title">USUYAMI</title>
  <desc id="desc">Usuyami Bunko</desc>
  <defs>
    <linearGradient id="bg" x1="0" x2="1" y1="0" y2="1">
      <stop offset="0" stop-color="#FFFDF8"/>
      <stop offset=".6" stop-color="#F4EEE6"/>
      <stop offset="1" stop-color="#E7DCEA"/>
    </linearGradient>
  </defs>
  <rect width="720" height="420" fill="url(#bg)"/>
  <circle cx="610" cy="78" r="78" fill="#6B4F7A" opacity=".14"/>
  <circle cx="110" cy="340" r="96" fill="#C6A43F" opacity=".13"/>
  <path d="M72 285 C160 130 306 78 464 128 C574 163 640 244 654 342 L72 342 Z" fill="#fffdf8" opacity=".74"/>
  <path d="M150 300 L150 196 L210 196 L210 300 Z M222 300 L222 176 L276 176 L276 300 Z M288 300 L288 208 L338 208 L338 300 Z M350 300 L350 184 L404 184 L404 300 Z M416 300 L416 214 L470 214 L470 300 Z" fill="#6B4F7A" opacity=".5"/>
  <path d="M150 300 L470 300" stroke="#2B2523" stroke-opacity=".18" stroke-width="5"/>
  <rect x="58" y="54" width="148" height="34" rx="17" fill="#6B4F7A" opacity=".9"/>
  <text x="77" y="78" fill="#fff" font-family="system-ui, sans-serif" font-size="16" font-weight="700">USUYAMI</text>
  <text x="58" y="374" fill="#2B2523" font-family="Georgia, serif" font-size="31" font-weight="700">Usuyami Bunko</text>
</svg>
